<svg width="25" height="22" viewBox="0 0 25 22" fill="none" xmlns="http://www.w3.org/2000/svg">
<path d="M1.1 13.2C0.808262 13.2 0.528472 13.3159 0.322183 13.5222C0.115892 13.7285 0 14.0083 0 14.3V16.5C0 16.7917 0.115892 17.0715 0.322183 17.2778C0.528472 17.4841 0.808262 17.6 1.1 17.6C1.39174 17.6 1.67153 17.4841 1.87782 17.2778C2.08411 17.0715 2.2 16.7917 2.2 16.5V14.3C2.2 14.0083 2.08411 13.7285 1.87782 13.5222C1.67153 13.3159 1.39174 13.2 1.1 13.2ZM23.1 13.2C22.8083 13.2 22.5285 13.3159 22.3222 13.5222C22.1159 13.7285 22 14.0083 22 14.3V16.5C22 16.7917 22.1159 17.0715 22.3222 17.2778C22.5285 17.4841 22.8083 17.6 23.1 17.6C23.3917 17.6 23.6715 17.4841 23.8778 17.2778C24.0841 17.0715 24.2 16.7917 24.2 16.5V14.3C24.2 14.0083 24.0841 13.7285 23.8778 13.5222C23.6715 13.3159 23.3917 13.2 23.1 13.2ZM17.6 5.5H13.2V4.092C13.5325 3.90004 13.809 3.6244 14.002 3.29249C14.1949 2.96057 14.2977 2.58393 14.3 2.2C14.3 1.61652 14.0682 1.05694 13.6556 0.644365C13.2431 0.231785 12.6835 0 12.1 0C11.5165 0 10.9569 0.231785 10.5444 0.644365C10.1318 1.05694 9.9 1.61652 9.9 2.2C9.90232 2.58393 10.0051 2.96057 10.198 3.29249C10.391 3.6244 10.6675 3.90004 11 4.092V5.5H6.6C5.72479 5.5 4.88542 5.84768 4.26655 6.46655C3.64768 7.08542 3.3 7.92479 3.3 8.8V18.7C3.3 19.5752 3.64768 20.4146 4.26655 21.0335C4.88542 21.6523 5.72479 22 6.6 22H17.6C18.4752 22 19.3146 21.6523 19.9335 21.0335C20.5523 20.4146 20.9 19.5752 20.9 18.7V8.8C20.9 7.92479 20.5523 7.08542 19.9335 6.46655C19.3146 5.84768 18.4752 5.5 17.6 5.5ZM13.992 7.7L13.442 9.9H10.758L10.208 7.7H13.992ZM18.7 18.7C18.7 18.9917 18.5841 19.2715 18.3778 19.4778C18.1715 19.6841 17.8917 19.8 17.6 19.8H6.6C6.30826 19.8 6.02847 19.6841 5.82218 19.4778C5.61589 19.2715 5.5 18.9917 5.5 18.7V8.8C5.5 8.50826 5.61589 8.22847 5.82218 8.02218C6.02847 7.81589 6.30826 7.7 6.6 7.7H7.942L8.8 11.264C8.86023 11.5081 9.00223 11.7241 9.20237 11.8762C9.40252 12.0284 9.64872 12.1073 9.9 12.1H14.3C14.5513 12.1073 14.7975 12.0284 14.9976 11.8762C15.1978 11.7241 15.3398 11.5081 15.4 11.264L16.258 7.7H17.6C17.8917 7.7 18.1715 7.81589 18.3778 8.02218C18.5841 8.22847 18.7 8.50826 18.7 8.8V18.7Z" fill="#AEAEAE"/>
<path d="M18.7002 20.8994H4.40039V6.59961H18.7002V20.8994ZM8.7998 14.2988C8.58246 14.2989 8.3702 14.3637 8.18945 14.4844C8.00867 14.6052 7.86746 14.7767 7.78418 14.9775C7.70093 15.1785 7.67926 15.3999 7.72168 15.6133C7.76412 15.8267 7.86862 16.0229 8.02246 16.1768C8.17628 16.3305 8.3726 16.4351 8.58594 16.4775C8.7991 16.5199 9.01989 16.4981 9.2207 16.415C9.4217 16.3318 9.59397 16.1907 9.71484 16.0098C9.83565 15.8289 9.90039 15.6159 9.90039 15.3984C9.90029 15.1069 9.78426 14.8273 9.57812 14.6211C9.37183 14.4148 9.09154 14.2988 8.7998 14.2988ZM15.4004 14.2988C15.1828 14.2988 14.97 14.3635 14.7891 14.4844C14.6083 14.6052 14.467 14.7767 14.3838 14.9775C14.3006 15.1785 14.2789 15.3999 14.3213 15.6133C14.3637 15.8266 14.4683 16.0229 14.6221 16.1768C14.7759 16.3306 14.9722 16.4351 15.1855 16.4775C15.3989 16.52 15.6203 16.4983 15.8213 16.415C16.0222 16.3318 16.1936 16.1906 16.3145 16.0098C16.4353 15.8289 16.5 15.616 16.5 15.3984C16.4999 15.1068 16.3839 14.8273 16.1777 14.6211C15.9715 14.4149 15.692 14.2989 15.4004 14.2988Z" fill="#9E9E9E"/>
</svg>
